<!DOCTYPE svg PUBLIC "-//W3C//DTD SVG 1.1//EN" "http://www.w3.org/Graphics/SVG/1.1/DTD/svg11.dtd">
<!-- Uploaded to: SVG Repo, www.svgrepo.com, Transformed by: SVG Repo Mixer Tools -->
<svg width="800px" height="800px" viewBox="-3.2 -3.2 38.40 38.40" version="1.1" xmlns="http://www.w3.org/2000/svg" xmlns:xlink="http://www.w3.org/1999/xlink" xmlns:sketch="http://www.bohemiancoding.com/sketch/ns" fill="#ffffff" stroke="#ffffff">
<g id="SVGRepo_bgCarrier" stroke-width="0">
<path transform="translate(-3.2, -3.2), scale(1.2)" d="M16,27.449187364429235C18.869197649870973,27.498045298493256,20.9797856617717,25.036721392899047,22.9566856667184,22.9566856667184C24.863468088075724,20.95042558853938,26.99814969544122,18.765373466370654,26.881495097652078,16C26.767410903667212,13.29555963539228,24.47964351761855,11.331328308840211,22.393520180241367,9.606479819758633C20.549933983221866,8.082165888052781,18.388070093077843,7.1424766365381736,16,7.00296226888895C13.436172959838796,6.853179936575135,10.64997993588712,7.018241983249408,8.813092388963344,8.813092388963343C6.962756013322257,10.621083847171247,6.706152057464657,13.41443116841098,6.7922428995370865,15.999999999999998C6.8749006625044,18.482463064275272,7.719643723659761,20.788175798866085,9.276270341028578,22.72372965897142C11.060980062077054,24.942888544730355,13.152632086243457,27.400701156519307,16,27.449187364429235" fill="#021740f5f5f5" strokewidth="0"/>
</g>
<g id="SVGRepo_tracerCarrier" stroke-linecap="round" stroke-linejoin="round" stroke="#021740be1313" stroke-width="4.4799999999999995"> <title>chevron-right-circle</title> <desc>Created with Sketch Beta.</desc> <defs> </defs> <g id="Page-1" stroke="none" stroke-width="1" fill="none" fill-rule="evenodd" sketch:type="MSPage"> <g id="Icon-Set-Filled" sketch:type="MSLayerGroup" transform="translate(-102.000000, -1089.000000)" fill="#021740"> <path d="M122.536,1105.88 L114.879,1113.54 C114.488,1113.93 113.855,1113.93 113.464,1113.54 C113.074,1113.14 113.074,1112.51 113.464,1112.12 L120.586,1105 L113.464,1097.88 C113.074,1097.49 113.074,1096.86 113.464,1096.46 C113.855,1096.07 114.488,1096.07 114.879,1096.46 L122.536,1104.12 C122.775,1104.36 122.85,1104.69 122.795,1105 C122.85,1105.31 122.775,1105.64 122.536,1105.88 L122.536,1105.88 Z M118,1089 C109.164,1089 102,1096.16 102,1105 C102,1113.84 109.164,1121 118,1121 C126.836,1121 134,1113.84 134,1105 C134,1096.16 126.836,1089 118,1089 L118,1089 Z" id="chevron-right-circle" sketch:type="MSShapeGroup"> </path> </g> </g> </g>
<g id="SVGRepo_iconCarrier"> <title>chevron-right-circle</title> <desc>Created with Sketch Beta.</desc> <defs> </defs> <g id="Page-1" stroke-width="0.00032" fill="none" fill-rule="evenodd" sketch:type="MSPage"> <g id="Icon-Set-Filled" sketch:type="MSLayerGroup" transform="translate(-102.000000, -1089.000000)" fill="#021740"> <path d="M122.536,1105.88 L114.879,1113.54 C114.488,1113.93 113.855,1113.93 113.464,1113.54 C113.074,1113.14 113.074,1112.51 113.464,1112.12 L120.586,1105 L113.464,1097.88 C113.074,1097.49 113.074,1096.86 113.464,1096.46 C113.855,1096.07 114.488,1096.07 114.879,1096.46 L122.536,1104.12 C122.775,1104.36 122.85,1104.69 122.795,1105 C122.85,1105.31 122.775,1105.64 122.536,1105.88 L122.536,1105.88 Z M118,1089 C109.164,1089 102,1096.16 102,1105 C102,1113.84 109.164,1121 118,1121 C126.836,1121 134,1113.84 134,1105 C134,1096.16 126.836,1089 118,1089 L118,1089 Z" id="chevron-right-circle" sketch:type="MSShapeGroup"> </path> </g> </g> </g>
</svg>