<!DOCTYPE svg PUBLIC "-//W3C//DTD SVG 1.1//EN" "http://www.w3.org/Graphics/SVG/1.1/DTD/svg11.dtd">
<!-- Uploaded to: SVG Repo, www.svgrepo.com, Transformed by: SVG Repo Mixer Tools -->
<svg width="800px" height="800px" viewBox="-3.2 -3.2 38.40 38.40" version="1.1" xmlns="http://www.w3.org/2000/svg" xmlns:xlink="http://www.w3.org/1999/xlink" xmlns:sketch="http://www.bohemiancoding.com/sketch/ns" fill="#ffffff" transform="matrix(-1, 0, 0, 1, 0, 0)">
<g id="SVGRepo_bgCarrier" stroke-width="0" transform="translate(2.7200000000000006,2.7200000000000006), scale(0.83)">
<path transform="translate(-3.2, -3.2), scale(1.2)" d="M16,25.623224424100236C19.120165755983976,25.76323040789093,22.377807353383243,26.701578082179388,24.99110127037813,24.991101270378135C28.079450444881385,22.969686987285197,30.93904813457666,19.683486011462403,30.70251667597576,16C30.471002696651862,12.394650803145407,26.90220941297476,10.112662934701035,23.906066158084833,8.093933841915167C21.562461528034515,6.5148695428537895,18.81219407913168,5.815426335125593,16,6.093798718562251C13.472073840740824,6.3440320987285785,11.574845527440704,8.027163570049174,9.518158498908978,9.518158498908976C6.8037687158988085,11.485954933306816,2.728736444395367,12.670530821011491,2.3353286565918676,15.999999999999998C1.934428847418271,19.39287528078261,4.987821861803635,22.25170243914783,7.781132881193308,24.21886711880669C10.143419681708059,25.882486789133374,13.113608674212967,25.49370820965018,16,25.623224424100236" fill="#ffffff" strokewidth="0"/>
</g>
<g id="SVGRepo_tracerCarrier" stroke-linecap="round" stroke-linejoin="round"/>
<g id="SVGRepo_iconCarrier"> <title>chevron-right-circle</title> <desc>Created with Sketch Beta.</desc> <defs> </defs> <g id="Page-1" stroke="none" stroke-width="1" fill="none" fill-rule="evenodd" sketch:type="MSPage"> <g id="Icon-Set-Filled" sketch:type="MSLayerGroup" transform="translate(-102.000000, -1089.000000)" fill="#021740"> <path d="M122.536,1105.88 L114.879,1113.54 C114.488,1113.93 113.855,1113.93 113.464,1113.54 C113.074,1113.14 113.074,1112.51 113.464,1112.12 L120.586,1105 L113.464,1097.88 C113.074,1097.49 113.074,1096.86 113.464,1096.46 C113.855,1096.07 114.488,1096.07 114.879,1096.46 L122.536,1104.12 C122.775,1104.36 122.85,1104.69 122.795,1105 C122.85,1105.31 122.775,1105.64 122.536,1105.88 L122.536,1105.88 Z M118,1089 C109.164,1089 102,1096.16 102,1105 C102,1113.84 109.164,1121 118,1121 C126.836,1121 134,1113.84 134,1105 C134,1096.16 126.836,1089 118,1089 L118,1089 Z" id="chevron-right-circle" sketch:type="MSShapeGroup"> </path> </g> </g> </g>
</svg>